<?xml version="1.0" encoding="UTF-8"?>
<svg width="184px" height="185px" viewBox="0 0 184 185" version="1.1" xmlns="http://www.w3.org/2000/svg" xmlns:xlink="http://www.w3.org/1999/xlink">
    <!-- Generator: Sketch 63.1 (92452) - https://sketch.com -->
    <title>Header</title>
    <desc>Created with Sketch.</desc>
    <g id="Welcome" stroke="none" stroke-width="1" fill="none" fill-rule="evenodd">
        <g id="Icon" transform="translate(-37.000000, -37.000000)" fill="#FFFFFF">
            <g id="Header">
                <path d="M37.0878665,131.999244 L82.4897007,131.999469 C82.7137233,136.091618 83.354809,140.118819 84.3842533,144.000698 L38.2347754,144.000278 C37.6043607,140.086419 37.2167134,136.081364 37.0878665,131.999244 Z M84.2588863,113.998887 L84.284741,113.900887 C83.2681378,117.799653 82.6502479,121.858821 82.4617448,126.001766 L37.0848711,126.000914 C37.1982947,122.269257 37.5257052,118.604351 38.0552142,115.016633 L38.2110128,113.999838 L84.2588863,113.998887 Z" id="Combined-Shape"></path>
                <path d="M86.3291139,149.999755 C93.2617124,167.963529 108.961195,181.52 130.16,181.52 C150.08,181.52 164.96,169.04 172.88,151.52 L172.88,151.52 L220.4,151.52 C210.08,193.52 173.6,221.36 130.64,221.36 C86.2412405,221.36 48.9499259,191.508731 39.4059954,149.999918 Z M130.16,37.04 C162.32,37.04 190.64,51.92 208.4,78.8 C214.16,87.44 218.72,97.52 220.4,107.84 L220.4,107.84 L172.88,107.84 C165.92,89.6 149.84,76.88 129.92,76.88 C108.743506,76.88 93.0168513,90.1153232 86.1748116,107.999029 L39.3682819,107.999419 C48.7932522,66.5614939 85.7419793,37.04 130.16,37.04 Z" id="Combined-Shape" fill-rule="nonzero"></path>
            </g>
        </g>
    </g>
</svg>