<svg version="1.1" id="Layer_1" xmlns="http://www.w3.org/2000/svg" xmlns:xlink="http://www.w3.org/1999/xlink" x="0px" y="0px"
    viewBox="0 0 581.6 581.6" style="enable-background:new 0 0 581.6 581.6;" xml:space="preserve">
<path d="M551.1,0l-4.6,19.2c-1.1,0-2.3,0-3.6,0c-6.4-11.7-20.8-15.5-44.8-16.7c-71.7-3.5-128.9-3.3-145.5,0
  c-16.6,3.3-38.8,20.9-38.8,20.9s-11.1-3.3-22.7-3.2c-11.6-0.1-22.7,3.2-22.7,3.2S246.3,5.8,229.7,2.5c-16.6-3.3-73.8-3.5-145.5,0
  c-23.9,1.2-38.3,5-44.8,16.7c-1.5,0-2.9,0-4.3,0L30.6,0H1.7l43.4,479.8l115.6,72.7l130.2,29.1l130-29.1l115.7-72.7L580,0H551.1z
    M341.9,39.7c0.9-8.2,4-11.3,14.9-13.1c22.8-3.7,116.2-4.4,147,0c8.8,1.3,15.2,2.8,16.8,13.1c4.3,27.6,3.9,74.5-4.5,98.2
  c-3.7,10.4-6.4,14.3-20.5,16.4c-27.3,4.1-98.6,3.8-129.1-1c-13.8-2.2-13.4-7.4-17.9-17.5C341.9,120.7,338.4,72.2,341.9,39.7z
    M61.2,39.7c1.6-10.3,8-11.8,16.8-13.1c30.8-4.4,124.2-3.7,147,0c10.9,1.8,14,4.9,14.9,13.1c3.5,32.5,0,81-6.7,96.1
  c-4.5,10.1-4.1,15.3-17.9,17.5c-30.5,4.8-101.8,5.1-129.1,1c-14.1-2.1-16.8-6-20.5-16.4C57.3,114.2,56.9,67.3,61.2,39.7z
    M377.5,392.6l-43.4-87.2h-43.2h-43.4l-43.4,87.2l-86.7-29.1L73,177.4c2,0.3,4.2,0.5,6.5,0.7c45.1,3.1,113.9,3.8,150.1,0
  c15.8-1.7,24.8-19.2,29.3-31.7c12.9-36,9.6-91.5,9.6-91.5s11.4-13.4,22.7-14.9c11.3,1.5,22.7,14.9,22.7,14.9s-3.3,55.5,9.6,91.5
  c4.5,12.5,13.5,30,29.3,31.7c36.2,3.8,105,3.1,150.1,0c2.1-0.1,4.1-0.3,5.9-0.6l-44.4,186L377.5,392.6z"/>
</svg>